<svg xmlns="http://www.w3.org/2000/svg" width="805" height="600"><rect width="805" height="600" x="0" y="0" fill="#FFFFFF" id="background"/><g id="viz"><g transform="translate(0,0)"><g transform="translate(50,20)"><g id="Promedio pasos hora" fill="#1f77b4"><rect x="0.9986595174262334" y="426.38399999999996" width="30.001396336014302" height="133.61600000000004"/><rect x="31.998715370866808" y="435.71733333333333" width="30.001396336014302" height="124.28266666666667"/><rect x="62.99877122430738" y="475.6764444444444" width="30.001396336014302" height="84.32355555555557"/><rect x="93.99882707774796" y="355.64977777777773" width="30.001396336014302" height="204.35022222222227"/><rect x="124.99888293118853" y="93.62577777777781" width="30.001396336014302" height="466.3742222222222"/><rect x="155.9989387846291" y="301.67822222222225" width="30.001396336014302" height="258.32177777777775"/><rect x="186.9989946380697" y="357.29244444444447" width="30.001396336014302" height="202.70755555555553"/><rect x="217.99905049151025" y="350.6657777777778" width="30.001396336014302" height="209.3342222222222"/><rect x="248.99910634495083" y="346.2231111111111" width="30.001396336014302" height="213.7768888888889"/><rect x="279.9991621983914" y="303.93066666666664" width="30.001396336014302" height="256.06933333333336"/><rect x="310.999218051832" y="253.34400000000002" width="30.001396336014302" height="306.65599999999995"/><rect x="341.99927390527256" y="301.75911111111117" width="30.001396336014302" height="258.24088888888883"/><rect x="372.99932975871315" y="284.368" width="30.001396336014302" height="275.632"/><rect x="403.99938561215373" y="198.20888888888885" width="30.001396336014302" height="361.79111111111115"/><rect x="434.99944146559426" y="168.1866666666666" width="30.001396336014302" height="391.8133333333334"/><rect x="465.99949731903484" y="9.233777777777776" width="30.001396336014302" height="550.7662222222223"/><rect x="496.99955317247543" y="220.12977777777775" width="30.001396336014302" height="339.87022222222225"/><rect x="527.999609025916" y="339.584" width="30.001396336014302" height="220.416"/><rect x="558.9996648793565" y="268.2026666666667" width="30.001396336014302" height="291.7973333333333"/><rect x="589.9997207327972" y="336.01244444444444" width="30.001396336014302" height="223.98755555555556"/><rect x="620.9997765862377" y="274.0951111111111" width="30.001396336014302" height="285.9048888888889"/><rect x="651.9998324396784" y="327.3822222222222" width="30.001396336014302" height="232.6177777777778"/><rect x="682.9998882931188" y="344.9662222222222" width="30.001396336014302" height="215.0337777777778"/><rect x="713.9999441465595" y="410.4053333333333" width="30.001396336014302" height="149.59466666666668"/></g><g id="xAxis" transform="translate(0,560)" fill="none" font-size="10" font-family="sans-serif" text-anchor="middle"><path class="domain" stroke="currentColor" d="M0,0H745"/><g class="tick" opacity="1" transform="translate(15.999357685433385,0)"><line stroke="currentColor" y2="6"/><text fill="currentColor" y="9" dy="0.71em">0</text></g><g class="tick" opacity="1" transform="translate(46.99941353887396,0)"><line stroke="currentColor" y2="6"/><text fill="currentColor" y="9" dy="0.71em">1</text></g><g class="tick" opacity="1" transform="translate(77.99946939231454,0)"><line stroke="currentColor" y2="6"/><text fill="currentColor" y="9" dy="0.71em">2</text></g><g class="tick" opacity="1" transform="translate(108.99952524575511,0)"><line stroke="currentColor" y2="6"/><text fill="currentColor" y="9" dy="0.71em">3</text></g><g class="tick" opacity="1" transform="translate(139.9995810991957,0)"><line stroke="currentColor" y2="6"/><text fill="currentColor" y="9" dy="0.71em">4</text></g><g class="tick" opacity="1" transform="translate(170.99963695263625,0)"><line stroke="currentColor" y2="6"/><text fill="currentColor" y="9" dy="0.71em">5</text></g><g class="tick" opacity="1" transform="translate(201.99969280607684,0)"><line stroke="currentColor" y2="6"/><text fill="currentColor" y="9" dy="0.71em">6</text></g><g class="tick" opacity="1" transform="translate(232.9997486595174,0)"><line stroke="currentColor" y2="6"/><text fill="currentColor" y="9" dy="0.71em">7</text></g><g class="tick" opacity="1" transform="translate(263.999804512958,0)"><line stroke="currentColor" y2="6"/><text fill="currentColor" y="9" dy="0.71em">8</text></g><g class="tick" opacity="1" transform="translate(294.99986036639854,0)"><line stroke="currentColor" y2="6"/><text fill="currentColor" y="9" dy="0.71em">9</text></g><g class="tick" opacity="1" transform="translate(325.9999162198391,0)"><line stroke="currentColor" y2="6"/><text fill="currentColor" y="9" dy="0.71em">10</text></g><g class="tick" opacity="1" transform="translate(356.9999720732797,0)"><line stroke="currentColor" y2="6"/><text fill="currentColor" y="9" dy="0.71em">11</text></g><g class="tick" opacity="1" transform="translate(388.0000279267203,0)"><line stroke="currentColor" y2="6"/><text fill="currentColor" y="9" dy="0.71em">12</text></g><g class="tick" opacity="1" transform="translate(419.0000837801609,0)"><line stroke="currentColor" y2="6"/><text fill="currentColor" y="9" dy="0.71em">13</text></g><g class="tick" opacity="1" transform="translate(450.0001396336014,0)"><line stroke="currentColor" y2="6"/><text fill="currentColor" y="9" dy="0.71em">14</text></g><g class="tick" opacity="1" transform="translate(481.000195487042,0)"><line stroke="currentColor" y2="6"/><text fill="currentColor" y="9" dy="0.71em">15</text></g><g class="tick" opacity="1" transform="translate(512.0002513404826,0)"><line stroke="currentColor" y2="6"/><text fill="currentColor" y="9" dy="0.71em">16</text></g><g class="tick" opacity="1" transform="translate(543.0003071939232,0)"><line stroke="currentColor" y2="6"/><text fill="currentColor" y="9" dy="0.71em">17</text></g><g class="tick" opacity="1" transform="translate(574.0003630473636,0)"><line stroke="currentColor" y2="6"/><text fill="currentColor" y="9" dy="0.71em">18</text></g><g class="tick" opacity="1" transform="translate(605.0004189008043,0)"><line stroke="currentColor" y2="6"/><text fill="currentColor" y="9" dy="0.71em">19</text></g><g class="tick" opacity="1" transform="translate(636.0004747542448,0)"><line stroke="currentColor" y2="6"/><text fill="currentColor" y="9" dy="0.71em">20</text></g><g class="tick" opacity="1" transform="translate(667.0005306076855,0)"><line stroke="currentColor" y2="6"/><text fill="currentColor" y="9" dy="0.71em">21</text></g><g class="tick" opacity="1" transform="translate(698.000586461126,0)"><line stroke="currentColor" y2="6"/><text fill="currentColor" y="9" dy="0.71em">22</text></g><g class="tick" opacity="1" transform="translate(729.0006423145667,0)"><line stroke="currentColor" y2="6"/><text fill="currentColor" y="9" dy="0.71em">23</text></g></g><g id="yAxis" fill="none" font-size="10" font-family="sans-serif" text-anchor="end"><path class="domain" stroke="currentColor" d="M0,560V0"/><g class="tick" opacity="1" transform="translate(0,560)"><line stroke="currentColor" x2="-6"/><text fill="currentColor" x="-9" dy="0.32em">0</text></g><g class="tick" opacity="1" transform="translate(0,497.77777777777777)"><line stroke="currentColor" x2="-6"/><text fill="currentColor" x="-9" dy="0.32em">100</text></g><g class="tick" opacity="1" transform="translate(0,435.55555555555554)"><line stroke="currentColor" x2="-6"/><text fill="currentColor" x="-9" dy="0.32em">200</text></g><g class="tick" opacity="1" transform="translate(0,373.33333333333337)"><line stroke="currentColor" x2="-6"/><text fill="currentColor" x="-9" dy="0.32em">300</text></g><g class="tick" opacity="1" transform="translate(0,311.11111111111114)"><line stroke="currentColor" x2="-6"/><text fill="currentColor" x="-9" dy="0.32em">400</text></g><g class="tick" opacity="1" transform="translate(0,248.88888888888889)"><line stroke="currentColor" x2="-6"/><text fill="currentColor" x="-9" dy="0.32em">500</text></g><g class="tick" opacity="1" transform="translate(0,186.66666666666669)"><line stroke="currentColor" x2="-6"/><text fill="currentColor" x="-9" dy="0.32em">600</text></g><g class="tick" opacity="1" transform="translate(0,124.44444444444444)"><line stroke="currentColor" x2="-6"/><text fill="currentColor" x="-9" dy="0.32em">700</text></g><g class="tick" opacity="1" transform="translate(0,62.22222222222225)"><line stroke="currentColor" x2="-6"/><text fill="currentColor" x="-9" dy="0.32em">800</text></g><g class="tick" opacity="1" transform="translate(0,0)"><line stroke="currentColor" x2="-6"/><text fill="currentColor" x="-9" dy="0.32em">900</text></g></g><text y="556" x="745" text-anchor="end" style="font-family: Arial, sans-serif; font-size: 12px; fill: rgb(123, 123, 123); font-weight: bold;">Hora</text></g><text x="4" y="4" style="font-family: Arial, sans-serif; font-size: 12px; fill: black; font-weight: bold; dominant-baseline: hanging;"/></g><g id="grid"><rect x="0" y="0" width="805" height="600" fill="none" stroke="#ccc"/></g></g></svg>