<svg xmlns='http://www.w3.org/2000/svg' version='1.1' width='794px' height='503px'><svg xmlns="http://www.w3.org/2000/svg" style="position: fixed; left: 1000vw;" x="7648.555603027344" y="0"><text/></svg><svg version="1.1" id="Layer_1" xmlns="http://www.w3.org/2000/svg" xmlns:xlink="http://www.w3.org/1999/xlink" x="0" y="52.72222137451172" viewBox="0 0 512 512" style="enable-background:new 0 0 512 512;" xml:space="preserve"><path d="M256,8c137,0,248,111,248,248S393,504,256,504S8,393,8,256S119,8,256,8z M227.1,151.6l75.5,72.4H120c-13.3,0-24,10.7-24,24v16c0,13.3,10.7,24,24,24h182.6l-75.5,72.4c-9.7,9.3-9.9,24.8-0.4,34.3l11,10.9c9.4,9.4,24.6,9.4,33.9,0L404.3,273c9.4-9.4,9.4-24.6,0-33.9L271.6,106.3c-9.4-9.4-24.6-9.4-33.9,0l-11,10.9C217.2,126.8,217.4,142.3,227.1,151.6z" style="fill: rgb(51, 51, 51);"/></svg><svg version="1.1" id="Layer_1" xmlns="http://www.w3.org/2000/svg" xmlns:xlink="http://www.w3.org/1999/xlink" x="187.31942749023438" y="52.72222137451172" viewBox="0 0 512 512" style="enable-background:new 0 0 512 512;" xml:space="preserve"><path d="M256,8c137,0,248,111,248,248S393,504,256,504S8,393,8,256S119,8,256,8z M227.1,151.6l75.5,72.4H120c-13.3,0-24,10.7-24,24v16c0,13.3,10.7,24,24,24h182.6l-75.5,72.4c-9.7,9.3-9.9,24.8-0.4,34.3l11,10.9c9.4,9.4,24.6,9.4,33.9,0L404.3,273c9.4-9.4,9.4-24.6,0-33.9L271.6,106.3c-9.4-9.4-24.6-9.4-33.9,0l-11,10.9C217.2,126.8,217.4,142.3,227.1,151.6z" style="fill: rgb(51, 51, 51);"/></svg></svg>